<svg xmlns="http://www.w3.org/2000/svg" viewBox="0 0 720 460" role="img" aria-labelledby="title desc">
  <title id="title">Diseno web</title>
  <desc id="desc">Personas creando una interfaz web</desc>
  <rect width="720" height="460" fill="#fff8f0"/>
  <rect x="82" y="68" width="556" height="324" rx="24" fill="#ffffff" stroke="#263238" stroke-width="8"/>
  <rect x="82" y="68" width="556" height="58" rx="24" fill="#2a9d8f"/>
  <circle cx="126" cy="98" r="10" fill="#ef476f"/>
  <circle cx="160" cy="98" r="10" fill="#ffd166"/>
  <circle cx="194" cy="98" r="10" fill="#06d6a0"/>
  <rect x="126" y="166" width="180" height="142" rx="14" fill="#f4a261"/>
  <rect x="334" y="166" width="258" height="24" rx="12" fill="#457b9d"/>
  <rect x="334" y="216" width="216" height="18" rx="9" fill="#a8dadc"/>
  <rect x="334" y="254" width="238" height="18" rx="9" fill="#a8dadc"/>
  <rect x="334" y="306" width="132" height="38" rx="19" fill="#e76f51"/>
  <circle cx="185" cy="342" r="34" fill="#264653"/>
  <rect x="162" y="374" width="46" height="52" rx="18" fill="#264653"/>
  <circle cx="560" cy="354" r="30" fill="#264653"/>
  <rect x="540" y="383" width="40" height="43" rx="16" fill="#264653"/>
  <path d="M210 241l53 34 68-96" fill="none" stroke="#264653" stroke-width="12" stroke-linecap="round" stroke-linejoin="round"/>
</svg>
